<svg width="25" height="24" viewBox="0 0 25 24" fill="none" xmlns="http://www.w3.org/2000/svg">
<path d="M7.7557 10.7555C8.01479 11.2003 8.34721 11.6256 8.75296 11.9825C9.15382 12.3393 9.628 12.6278 10.1315 12.8037C10.7035 13.0139 11.251 13.0237 11.6176 12.9504C11.9843 12.8526 12.1847 12.6962 12.1456 12.4713C12.0771 12.0509 11.4123 11.7967 10.6693 11.4301C9.98975 11.0976 9.5009 10.511 9.17826 9.79731C8.85073 9.08358 8.68452 8.26231 8.59164 7.42638C8.55253 7.08907 8.53298 6.74687 8.52809 6.40468C8.5232 6.23358 8.5232 6.06248 8.52809 5.89627L8.53786 5.64696L8.55742 5.36343L8.59653 4.87457C8.60141 4.70836 8.65519 4.56171 8.67963 4.40039L8.72363 4.16574L8.79696 3.94576C8.85073 3.7991 8.88006 3.64267 8.95828 3.51557C9.2027 2.95828 9.59378 2.49387 10.1022 2.16634C10.6057 1.82903 11.2363 1.63838 11.8718 1.57483C12.4438 1.60905 13.0255 1.73615 13.5241 1.95613C14.0277 2.17612 14.453 2.4792 14.7707 2.8654C15.0934 3.25159 15.3085 3.72577 15.4551 4.24396C15.4942 4.50794 15.5724 4.69859 15.592 5.07011L15.6409 5.56874C15.6506 5.69096 15.6604 5.85228 15.6653 5.99893C15.6995 7.21128 15.5627 8.47252 15.1129 9.49422C15.0005 9.74842 14.8685 9.98307 14.7169 10.1982C14.5654 10.4084 14.3943 10.5892 14.2036 10.7506C13.8223 11.0488 13.3579 11.259 12.8544 11.3225C12.8153 11.3274 12.7713 11.3421 12.7224 11.3665C12.6735 11.391 12.6344 11.4252 12.5611 11.4594C12.4291 11.523 12.3069 11.6012 12.2531 11.6647C12.0331 11.9091 12.3509 12.1145 12.8006 12.2171C13.1722 12.3051 13.5926 12.3051 14.0228 12.2269C14.4579 12.1487 14.8978 11.9483 15.2938 11.6647C16.0955 11.0879 16.6479 10.1542 16.9461 9.2058C17.3079 8.05211 17.4301 6.87886 17.4105 5.69096C17.4105 5.54919 17.3958 5.36831 17.3861 5.24121L17.3567 4.82569C17.3567 4.57149 17.2736 4.20974 17.215 3.89198C17.1905 3.72577 17.1319 3.57423 17.083 3.4178C17.0292 3.26137 16.9852 3.10982 16.9217 2.95339C16.7701 2.65519 16.643 2.34721 16.4328 2.07346C16.0515 1.51128 15.5284 1.02243 14.932 0.694897C14.3405 0.362478 13.6952 0.152272 13.05 0.0642791C12.7273 0.015394 12.3998 -0.00416005 12.082 0.00072846C11.7398 0.00561697 11.4221 0.0447251 11.0994 0.108276C10.459 0.235377 9.81865 0.474914 9.25159 0.851329C8.67474 1.19353 8.14189 1.65793 7.76548 2.22989C7.14953 3.12449 6.89044 4.16085 6.81222 5.13367L6.79267 5.31943L6.78289 5.41231C6.778 5.4612 6.78778 5.34876 6.78778 5.35854V5.36343V5.36831V5.37809L6.78289 5.40253L6.778 5.45631C6.76822 5.58341 6.75845 5.70073 6.75356 5.82295C6.74378 6.06248 6.73889 6.29713 6.73889 6.53178C6.74378 7.00597 6.778 7.47526 6.84644 7.94945C6.97843 8.89782 7.23752 9.86086 7.7557 10.7555Z" fill="black"/>
<path d="M22.5532 18.7189C22.5434 18.4402 22.519 18.1469 22.4799 17.8487C22.3968 17.2523 22.2208 16.607 21.8297 16.0008C21.4386 15.3947 20.7933 14.9156 20.1334 14.6956L20.1236 14.6907C20.1041 14.6858 20.0796 14.6761 20.0601 14.6712C18.9601 14.3876 17.8798 13.9086 16.8825 13.317C16.643 13.1802 16.1884 13.0922 16.0124 13.1166C15.9293 13.1313 15.8706 13.1606 15.8413 13.2095C15.8119 13.2584 15.8119 13.3219 15.8315 13.3953C15.8755 13.5468 16.0222 13.7472 16.2275 13.9526C17.083 14.8325 18.2611 15.6293 19.6934 16.1279L19.6494 16.1133C20.2263 16.387 20.5734 16.8466 20.7396 17.5065C20.8764 18.0002 20.8862 18.5869 20.8764 19.1833C20.8667 19.4766 20.8471 19.7797 20.8178 20.0632C20.8031 20.205 20.7836 20.3467 20.7542 20.4738C20.7493 20.4934 20.7493 20.508 20.7445 20.5227C20.72 20.5374 20.6956 20.5472 20.676 20.5569C20.5636 20.6107 20.456 20.6694 20.3436 20.7183C20.1187 20.8258 19.8841 20.9187 19.6543 21.0165C19.185 21.2022 18.7059 21.3684 18.2171 21.5102C17.2443 21.7986 16.2421 22.0088 15.2302 22.1457C14.9809 22.1897 14.7218 22.2044 14.4676 22.2337C14.2134 22.2679 13.9592 22.2826 13.705 22.2972C13.4508 22.3119 13.1966 22.3364 12.9375 22.3364L12.1896 22.3559C11.6567 22.3461 11.1092 22.3461 10.6203 22.3119L10.2439 22.2924L9.86263 22.2581C9.60842 22.2337 9.34933 22.219 9.09513 22.1799C8.77249 22.1164 8.44985 22.0626 8.13209 21.9795L7.65302 21.8671L7.17883 21.7351C6.52377 21.5493 5.87849 21.3391 5.25276 21.08C4.93989 20.9529 4.63192 20.816 4.33372 20.6743C4.18706 20.6009 4.03552 20.5276 3.89375 20.4494C3.86931 20.4347 3.84976 20.4249 3.82531 20.4103C3.81554 20.337 3.80576 20.2636 3.79598 20.1854C3.77154 19.9654 3.76176 19.7259 3.75199 19.4863C3.73732 19.0171 3.75687 18.5184 3.80576 18.1029C3.85953 17.6776 3.97197 17.311 4.13818 17.0421C4.30928 16.7781 4.52437 16.5972 4.84212 16.4653L4.7688 16.4848C5.66339 16.2306 6.50422 15.8737 7.29616 15.4533C8.44496 14.8423 9.21734 14.0357 8.88003 13.7228C8.57695 13.4393 7.72635 13.669 6.61177 14.1432C5.87849 14.4561 5.12077 14.7054 4.35816 14.8716C4.34839 14.8716 4.33861 14.8765 4.32883 14.8814L4.2995 14.8911C3.86442 15.0329 3.42934 15.2725 3.07737 15.6146C2.7254 15.952 2.47609 16.3724 2.30988 16.7879C2.14367 17.2083 2.05567 17.6287 2.00679 18.0345C1.98235 18.2398 1.96768 18.4353 1.9579 18.6309L1.94813 18.9095L1.94324 19.0464V19.2077C1.94813 19.5352 1.9579 19.8628 1.99212 20.2001C2.00679 20.3712 2.02634 20.5374 2.06056 20.7231C2.09478 20.9089 2.129 21.0898 2.22188 21.3342L2.22677 21.344C2.28543 21.4906 2.3832 21.6177 2.52986 21.7057C2.64229 21.7742 2.7254 21.8231 2.81828 21.8719C2.91116 21.9257 2.99916 21.9697 3.09204 22.0186C3.27291 22.1164 3.45868 22.1946 3.63955 22.2826C4.00619 22.4439 4.37772 22.5954 4.75413 22.7323C5.50207 23.0012 6.26468 23.2261 7.03707 23.3923C7.42326 23.4852 7.80945 23.5438 8.20053 23.622C8.59161 23.6709 8.97781 23.7442 9.37377 23.7785C9.76486 23.8176 10.1559 23.8567 10.5568 23.8713L11.1532 23.9007L11.7251 23.9056C11.6958 23.8909 11.6665 23.8713 11.6372 23.8567C11.6665 23.8713 11.6958 23.8909 11.7251 23.9056C12.5806 24.0033 13.4361 24.0131 14.3014 23.9887C15.1618 23.9398 16.0319 23.8567 16.8923 23.6856C17.7527 23.5194 18.6033 23.2994 19.4392 23.0061C19.8547 22.8594 20.2703 22.6981 20.6809 22.5123C20.8862 22.4243 21.0866 22.3217 21.292 22.219C21.3946 22.1653 21.4924 22.1164 21.5951 22.0577C21.7026 21.999 21.7906 21.9502 21.9226 21.8671L21.9372 21.8573C22.0986 21.7546 22.2306 21.6031 22.299 21.4075C22.4554 20.9725 22.4799 20.6938 22.5141 20.3956C22.5434 20.1023 22.5581 19.8237 22.5679 19.545C22.5728 19.4081 22.5728 19.2713 22.5728 19.1246L22.5532 18.7189Z" fill="black"/>
</svg>
