<svg width="53" height="33" viewBox="0 0 53 33" fill="none" xmlns="http://www.w3.org/2000/svg">
<g clip-path="url(#clip0_184_3231)">
<rect x="4" y="2.5" width="20" height="18" fill="#6D9300"/>
<path d="M51.7939 23.2031H50.7783V18.7344C50.7783 17.2313 49.6571 16.0938 48.1377 16.0938H43.2627C43.1611 16.0938 43.0393 16.0389 42.9702 15.9719L35.3733 8.57609C35.0321 8.23484 34.6177 7.985 34.1221 7.96875H28.6377V26.6562H36.7627C36.9496 26.6562 37.1344 26.4206 37.1689 26.25C37.6808 23.3128 40.1813 21.0845 43.2708 21.0845C46.3624 21.0845 48.9218 23.3209 49.4336 26.2581C49.4682 26.447 49.7789 26.6562 49.9658 26.6562H50.3721C51.345 26.6562 52.2002 25.7808 52.2002 24.8241V23.5606C52.2002 23.3738 51.9991 23.2031 51.7939 23.2031ZM39.4033 16.0938H31.0752C30.87 16.0938 30.6689 15.8927 30.6689 15.6875L30.6608 10.4367C30.6608 10.2316 30.87 10 31.0752 10H33.7158C33.8174 10 34.0246 10.1117 34.1099 10.1808L39.6064 15.4844C39.8116 15.7403 39.7283 16.0938 39.4033 16.0938ZM10.3524 6.425C9.59676 6.425 8.98129 7.04047 8.98129 7.79812C8.98129 8.55578 9.59676 9.16922 10.3524 9.16922C11.1121 9.16922 11.7255 8.55578 11.7255 7.79812C11.7255 7.04047 11.1121 6.425 10.3524 6.425ZM17.0372 12.0516C16.0927 11.6555 15.0039 12.1023 14.6079 13.0469C14.2118 13.9914 14.6566 15.0781 15.6032 15.4742C16.5477 15.8703 17.6344 15.4255 18.0305 14.4809C18.4266 13.5364 17.9818 12.4497 17.0372 12.0516ZM17.0372 12.0516C16.0927 11.6555 15.0039 12.1023 14.6079 13.0469C14.2118 13.9914 14.6566 15.0781 15.6032 15.4742C16.5477 15.8703 17.6344 15.4255 18.0305 14.4809C18.4266 13.5364 17.9818 12.4497 17.0372 12.0516ZM10.3524 6.425C9.59676 6.425 8.98129 7.04047 8.98129 7.79812C8.98129 8.55578 9.59676 9.16922 10.3524 9.16922C11.1121 9.16922 11.7255 8.55578 11.7255 7.79812C11.7255 7.04047 11.1121 6.425 10.3524 6.425ZM1.0127 0.65625V24.9175C1.0127 25.8275 1.7277 26.6562 2.6377 26.6562H7.10644C7.29332 26.6562 7.47816 26.4206 7.51269 26.25C8.02457 23.3128 10.6266 21.2856 13.7161 21.2856C16.8057 21.2856 19.3671 23.3209 19.8789 26.2581C19.9135 26.447 20.1227 26.6562 20.3096 26.6562H27.0127V0.65625H1.0127ZM6.87691 7.36547L7.78082 7.21312C7.84785 6.91656 7.96566 6.64031 8.12207 6.39047L7.58988 5.64297L8.20129 5.03359L8.94879 5.56578C9.1966 5.40734 9.47285 5.29156 9.76941 5.22453L9.92176 4.32063H10.785L10.9374 5.22453C11.2339 5.29156 11.5102 5.40734 11.76 5.56578L12.5075 5.03359L13.1169 5.64297L12.5847 6.39047C12.7432 6.64031 12.8589 6.91656 12.926 7.21312L13.8299 7.36547V8.22875L12.926 8.38109C12.8589 8.67766 12.7432 8.95391 12.5847 9.20375L13.1169 9.95125L12.5075 10.5606L11.76 10.0284C11.5102 10.1869 11.2339 10.3027 10.9374 10.3697L10.785 11.2736H9.92176L9.76941 10.3697C9.47285 10.3027 9.1966 10.1869 8.94879 10.0284L8.20129 10.5606L7.58988 9.95125L8.12207 9.20375C7.96566 8.95391 7.84785 8.67766 7.78082 8.38109L6.87691 8.22875V7.36547ZM11.0816 14.6272L10.4824 14.7288C10.4377 14.9258 10.3605 15.1086 10.2569 15.2731L10.6083 15.7667L10.2041 16.1709L9.71051 15.8195C9.54598 15.9231 9.36316 16.0003 9.16613 16.045L9.0666 16.6442H8.49379L8.39426 16.045C8.19723 16.0003 8.01441 15.9231 7.84988 15.8195L7.35629 16.1709L6.95207 15.7667L7.30348 15.2731C7.19988 15.1086 7.12269 14.9258 7.07801 14.7288L6.47879 14.6272V14.0564L7.07801 13.9569C7.12269 13.7598 7.19988 13.577 7.30348 13.4125L6.95207 12.9169L7.35629 12.5147L7.84988 12.8661C8.01441 12.7625 8.19723 12.6853 8.39426 12.6406L8.49379 12.0414H9.0666L9.16613 12.6406C9.36316 12.6853 9.54598 12.7625 9.71051 12.8661L10.2041 12.5147L10.6083 12.9169L10.2569 13.4125C10.3605 13.577 10.4377 13.7598 10.4824 13.9569L11.0816 14.0564V14.6272ZM19.8343 14.3794L20.8824 15.0436L20.4314 16.1202L19.2229 15.8378C18.9852 16.1709 18.6947 16.4553 18.3677 16.6848L18.6399 17.8934L17.5613 18.3363L16.9072 17.282C16.5132 17.3491 16.1069 17.3491 15.7027 17.278L15.0405 18.3261L13.9639 17.8752L14.2463 16.6666C13.9132 16.4289 13.6288 16.1384 13.3993 15.8114L12.1886 16.0856L11.7479 15.005L12.8021 14.3509C12.735 13.9569 12.735 13.5506 12.8061 13.1464L11.758 12.4842L12.2089 11.4077L13.4175 11.69C13.6552 11.3569 13.9457 11.0725 14.2707 10.843L13.9985 9.63234L15.0791 9.19156L15.7332 10.2458C16.1252 10.1788 16.5314 10.1788 16.9357 10.2498L17.5999 9.20172L18.6764 9.65266L18.3941 10.8612C18.7272 11.0989 19.0116 11.3894 19.2411 11.7144L20.4497 11.4422L20.8925 12.5228L19.8383 13.1769C19.9053 13.5689 19.9054 13.9752 19.8343 14.3794ZM17.0372 12.0516C16.0927 11.6555 15.0039 12.1023 14.6079 13.0469C14.2118 13.9914 14.6566 15.0781 15.6032 15.4742C16.5477 15.8703 17.6344 15.4255 18.0305 14.4809C18.4266 13.5364 17.9818 12.4497 17.0372 12.0516ZM10.3524 9.16922C11.1121 9.16922 11.7255 8.55578 11.7255 7.79812C11.7255 7.04047 11.1121 6.425 10.3524 6.425C9.59676 6.425 8.98129 7.04047 8.98129 7.79812C8.98129 8.55578 9.59676 9.16922 10.3524 9.16922ZM8.7802 13.707C8.42879 13.707 8.14441 13.9914 8.14441 14.3428C8.14441 14.6942 8.42879 14.9786 8.7802 14.9786C9.1316 14.9786 9.41598 14.6942 9.41598 14.3428C9.41598 13.9914 9.1316 13.707 8.7802 13.707ZM17.0372 12.0516C16.0927 11.6555 15.0039 12.1023 14.6079 13.0469C14.2118 13.9914 14.6566 15.0781 15.6032 15.4742C16.5477 15.8703 17.6344 15.4255 18.0305 14.4809C18.4266 13.5364 17.9818 12.4497 17.0372 12.0516ZM17.0372 12.0516C16.0927 11.6555 15.0039 12.1023 14.6079 13.0469C14.2118 13.9914 14.6566 15.0781 15.6032 15.4742C16.5477 15.8703 17.6344 15.4255 18.0305 14.4809C18.4266 13.5364 17.9818 12.4497 17.0372 12.0516ZM43.2708 22.6912C40.6769 22.6912 38.5766 24.7895 38.5766 27.3855C38.5766 29.9794 40.6769 32.0797 43.2708 32.0797C45.8668 32.0797 47.9671 29.9794 47.9671 27.3855C47.9671 24.7895 45.8668 22.6912 43.2708 22.6912ZM43.2708 29.1831C42.2857 29.1831 41.4732 28.3706 41.4732 27.3855C41.4732 26.4003 42.2857 25.5878 43.2708 25.5878C44.258 25.5878 45.0705 26.4003 45.0705 27.3855C45.0705 28.3706 44.258 29.1831 43.2708 29.1831ZM13.7161 22.8903C11.1202 22.8903 9.02191 24.9906 9.02191 27.5845C9.02191 30.1805 11.1202 32.2808 13.7161 32.2808C16.31 32.2808 18.4104 30.1805 18.4104 27.5845C18.4104 24.9906 16.31 22.8903 13.7161 22.8903ZM13.7161 29.3842C12.731 29.3842 11.9185 28.5717 11.9185 27.5845C11.9185 26.5994 12.731 25.7869 13.7161 25.7869C14.7013 25.7869 15.5138 26.5994 15.5138 27.5845C15.5138 28.5717 14.7013 29.3842 13.7161 29.3842Z" fill="#6D9300"/>
</g>
<defs>
<clipPath id="clip0_184_3231">
<rect width="52" height="32.5" fill="white" transform="translate(0.606445 0.25)"/>
</clipPath>
</defs>
</svg>
