<svg width="45" height="44" viewBox="0 0 45 44" fill="none" xmlns="http://www.w3.org/2000/svg">
<path fill-rule="evenodd" clip-rule="evenodd" d="M17.3816 0.746867C16.6112 0.86589 15.4913 1.23319 14.7176 1.62068C12.535 2.71389 10.9119 4.62952 10.1781 6.97828C9.8596 7.99767 9.77616 8.7999 9.77616 10.8431C9.77616 11.9975 9.74368 12.6996 9.68859 12.7336C9.64046 12.7633 9.49592 12.988 9.36753 13.2328C9.16669 13.6156 9.13403 13.7801 9.13403 14.4084C9.13403 15.0366 9.16669 15.2011 9.36753 15.5839C9.49592 15.8287 9.64046 16.0534 9.68859 16.0831C9.74608 16.1186 9.77616 17.522 9.77616 20.1638V24.1903L9.12527 24.5414C7.13272 25.6161 5.67754 27.452 5.13433 29.5763C4.97251 30.2092 3.54586 43.0973 3.62845 43.1799C3.67253 43.224 4.90084 43.3748 4.9353 43.3404C4.96495 43.3107 5.73572 36.1265 5.73658 35.8712C5.73701 35.7345 5.85801 35.7209 7.06913 35.7209H8.40116V36.2398C8.40116 37.0544 8.56453 38.3384 8.80532 39.4162C8.97694 40.1844 9.03529 40.725 9.06735 41.8439L9.10851 43.2834H9.7967H10.485L10.4388 41.758C10.4102 40.8092 10.3397 40.0052 10.2524 39.631C9.66057 37.094 9.63368 35.0414 10.1635 32.8419C10.2773 32.3693 10.9649 30.2037 11.6914 28.0294L13.0124 24.0763L13.3815 24.0493C13.7295 24.024 13.7478 24.0339 13.7011 24.2212C13.5223 24.9383 11.8387 32.9179 11.8387 33.0482C11.8387 33.4353 12.1083 33.5858 13.1759 33.7946C15.187 34.188 16.3847 34.2965 18.7137 34.2965C21.0427 34.2965 22.2404 34.188 24.2514 33.7946C25.319 33.5858 25.5887 33.4353 25.5887 33.0482C25.5887 32.9179 23.905 24.9383 23.7262 24.2212C23.6795 24.0339 23.6979 24.024 24.0458 24.0493L24.4149 24.0763L25.7359 28.0294C26.4624 30.2037 27.15 32.3693 27.2638 32.8419C27.749 34.8562 27.7607 36.8086 27.3007 38.9865C27.0856 40.0049 27.0288 40.5113 26.99 41.758L26.9423 43.2834H27.6306H28.3188L28.36 41.8439C28.392 40.725 28.4504 40.1844 28.622 39.4162C28.8628 38.3384 29.0262 37.0544 29.0262 36.2398V35.7209H29.755C30.4415 35.7209 30.4862 35.732 30.5242 35.9142C30.5465 36.0206 30.6847 37.6126 30.8313 39.452C30.978 41.2915 31.1355 42.8665 31.1812 42.952C31.227 43.0376 31.3384 43.1471 31.4287 43.1954C31.5345 43.2521 33.1421 43.2834 35.9424 43.2834H40.2918L40.5027 43.0724C40.6187 42.9564 40.7137 42.8114 40.7139 42.7501C40.7141 42.6889 40.8686 40.8019 41.0574 38.5568C41.2462 36.3117 41.4007 34.386 41.4009 34.2775C41.4011 34.169 41.3062 33.9853 41.1902 33.8693L40.9793 33.6584H38.7839H36.5887V33.3271V32.9959L37.4265 32.9483C38.763 32.8725 39.8066 32.4196 40.6727 31.5396C41.4783 30.7209 41.9643 29.6677 42.0605 28.5316C42.1096 27.9506 42.1002 27.9042 41.8896 27.6937C41.6749 27.4789 41.6299 27.4709 40.6474 27.4709C40.0867 27.4709 39.3986 27.5124 39.1181 27.5633C38.485 27.678 37.5207 28.1324 37.0477 28.5388C36.8511 28.7077 36.6674 28.8459 36.6394 28.8459C36.6115 28.8459 36.5887 28.5189 36.5887 28.1194V27.393L36.9823 27.2189C37.1986 27.1231 37.5177 26.9342 37.6912 26.799C37.8647 26.6638 38.2193 26.441 38.4793 26.3038C39.5114 25.7592 40.4209 24.5473 40.6273 23.4416C40.6748 23.187 40.7137 22.0734 40.7137 20.9669V18.9552L40.5027 18.7443C40.3849 18.6264 40.1912 18.5334 40.0641 18.5334C39.9297 18.5334 39.307 18.8519 38.545 19.3105C37.8348 19.7379 37.2158 20.0957 37.1694 20.1054C37.123 20.1152 36.925 19.7945 36.7294 19.3927C36.4541 18.8272 36.3204 18.644 36.1375 18.5812C35.6818 18.425 35.4627 18.592 35.0729 19.3927C34.8773 19.7945 34.6793 20.1152 34.6329 20.1054C34.5865 20.0957 33.9675 19.7379 33.2573 19.3105C32.4953 18.8519 31.8727 18.5334 31.7383 18.5334C31.6111 18.5334 31.4175 18.6264 31.2996 18.7443L31.0887 18.9552V21.0465C31.0887 23.3128 31.1457 23.7288 31.5717 24.5695C31.8713 25.1607 32.72 25.9882 33.3859 26.3383C33.6804 26.4931 34.0349 26.7154 34.1737 26.8322C34.3126 26.949 34.6033 27.123 34.8199 27.2188L35.2137 27.393V28.1224C35.2137 28.803 35.2031 28.8463 35.0562 28.7676C34.9696 28.7212 34.849 28.6234 34.7884 28.5503C34.6208 28.3484 33.8286 27.9176 33.266 27.7222C32.9901 27.6265 32.4519 27.5255 32.07 27.4977L31.3754 27.4474L31.1507 27.092C30.5543 26.1494 29.45 25.1606 28.302 24.5414L27.6512 24.1903V20.2055V16.2207L27.8664 15.9035C28.134 15.5091 28.3387 14.8374 28.3387 14.353C28.3387 13.9363 28.0712 13.1536 27.8195 12.8335C27.6643 12.6362 27.6512 12.4764 27.6508 10.7854C27.6505 8.76535 27.5394 7.81746 27.1799 6.76241C26.1777 3.8224 23.8715 1.70112 20.8191 0.911781C20.0273 0.707078 18.2057 0.61968 17.3816 0.746867ZM20.049 2.16527C22.466 2.5867 24.6288 4.28586 25.63 6.54971C26.1003 7.61319 26.2086 8.22206 26.2542 10.0597L26.2967 11.7697L26.0931 11.7152C25.981 11.6852 25.8103 11.6602 25.7135 11.6596C25.5508 11.6584 25.5402 11.6165 25.5728 11.1046C25.6562 9.79463 25.0861 8.39178 24.0487 7.3546C23.4785 6.78449 23.2452 6.62637 22.1785 6.08702C21.5081 5.74817 20.8647 5.47085 20.7485 5.47085C20.4194 5.47085 20.1985 5.72187 19.9738 6.35102C19.3648 8.05534 17.9395 9.4202 16.1594 10.0035C15.5659 10.1979 15.3089 10.2271 13.8652 10.2636C12.2805 10.3036 12.2339 10.31 12.0288 10.515C11.8445 10.6994 11.8232 10.7833 11.8571 11.1919C11.8925 11.6193 11.8808 11.6584 11.7168 11.6596C11.6184 11.6602 11.4508 11.684 11.3445 11.7125L11.1512 11.7643V10.3906C11.1512 9.54145 11.2015 8.72797 11.2831 8.26047C11.7831 5.39342 13.9997 3.00453 16.823 2.29022C17.9567 2.00336 18.9091 1.96649 20.049 2.16527ZM21.9965 7.54753C22.8354 7.98392 23.4253 8.54157 23.7694 9.22331C24.2607 10.1964 24.268 10.3789 23.9625 14.0001C23.8073 15.8389 23.6313 17.4397 23.5562 17.6955C23.0491 19.4215 21.5688 20.7802 19.7879 21.1541C17.1774 21.7021 14.5802 20.1754 13.8679 17.674C13.7589 17.2914 13.2996 12.587 13.2996 11.8538C13.2996 11.6644 13.3245 11.6584 14.1047 11.6584C16.2082 11.6584 17.9696 10.9896 19.3702 9.65919C20.0974 8.96842 20.4653 8.49302 20.8656 7.72671C21.0199 7.43134 21.1827 7.1896 21.2273 7.1896C21.272 7.1896 21.6181 7.35065 21.9965 7.54753ZM12.0415 13.4845C12.0693 13.7326 12.1146 14.2644 12.142 14.6662C12.1694 15.0679 12.2098 15.4836 12.2317 15.59C12.2679 15.7652 12.239 15.7834 11.9235 15.7834C10.9786 15.7834 10.3297 15.0204 10.5004 14.1101C10.6048 13.554 11.2041 13.045 11.7643 13.0367C11.9743 13.0336 11.9944 13.0661 12.0415 13.4845ZM26.3494 13.2687C26.7794 13.5898 26.9207 13.8716 26.9207 14.4084C26.9207 15.2093 26.4572 15.697 25.6308 15.7655C25.1618 15.8044 25.1512 15.8004 25.1928 15.601C25.2162 15.4886 25.2579 15.0679 25.2853 14.6662C25.3127 14.2644 25.3585 13.7282 25.3871 13.4747L25.439 13.0137L25.7857 13.0602C25.9764 13.0858 26.23 13.1796 26.3494 13.2687ZM11.9375 17.1571L12.337 17.1584L12.4829 17.814C12.7764 19.1332 13.7878 20.6631 14.8368 21.375L15.2717 21.6701L15.2739 22.2602L15.2762 22.8503L15.0398 22.784C14.9099 22.7476 14.2488 22.7024 13.5707 22.6835C12.1525 22.6442 11.9976 22.6954 11.8286 23.2596C11.7719 23.4488 11.7217 23.6037 11.7171 23.6037C11.7124 23.6037 11.5832 23.6397 11.4299 23.6836L11.1512 23.7635V20.408V17.0524L11.3445 17.1042C11.4508 17.1327 11.7177 17.1565 11.9375 17.1571ZM26.2762 20.418V23.7635L25.9975 23.6836C25.8441 23.6397 25.7149 23.6037 25.7103 23.6037C25.7056 23.6037 25.6554 23.4488 25.5987 23.2596C25.4297 22.6954 25.2748 22.6442 23.8566 22.6835C23.1785 22.7024 22.5174 22.7476 22.3875 22.784L22.1512 22.8503V22.2572C22.1512 21.6954 22.1641 21.6565 22.3976 21.5186C23.5103 20.8613 24.6307 19.2242 24.95 17.7891L25.0885 17.1664L25.5749 17.1357C25.8424 17.1187 26.1097 17.0976 26.1687 17.0887C26.2531 17.0759 26.2762 17.7902 26.2762 20.418ZM33.8677 22.1784C33.7075 22.5774 33.4907 23.2354 33.3859 23.6407C33.2812 24.046 33.1565 24.3663 33.1089 24.3524C33.0612 24.3387 32.9062 24.0969 32.7644 23.8152C32.5134 23.3164 32.5059 23.265 32.4778 21.8615L32.4491 20.42L33.304 20.9365L34.1589 21.453L33.8677 22.1784ZM39.214 23.3801C39.0783 23.8394 38.7867 24.3771 38.6732 24.3771C38.6366 24.3771 38.521 24.0456 38.4164 23.6404C38.3116 23.2353 38.0947 22.5771 37.9344 22.1777L37.6428 21.4515L38.4692 20.9584L39.2957 20.4653L39.3196 21.7036C39.3371 22.6142 39.3092 23.0578 39.214 23.3801ZM36.3064 21.7775C36.8315 23.0291 37.2135 24.2784 37.2239 24.7788C37.234 25.261 37.0823 25.5466 36.6415 25.8757C36.3088 26.1241 35.4936 26.1241 35.1608 25.8757C34.4827 25.3693 34.4193 24.8538 34.866 23.4748C35.1794 22.5074 35.8195 20.9396 35.9012 20.9396C35.9306 20.9396 36.113 21.3166 36.3064 21.7775ZM18.7137 22.6064C19.4365 22.6064 19.9495 22.5614 20.282 22.4687L20.7762 22.3309V22.9712C20.7762 23.7895 20.9198 23.9599 21.7404 24.1147C22.2088 24.2032 22.3169 24.2553 22.3563 24.4118C22.5162 25.0492 23.0105 27.4211 23.0105 27.5513C23.0105 27.7709 21.9747 28.865 21.3338 29.3224C21.0391 29.5327 20.5321 29.8084 20.207 29.9351C19.6997 30.1329 19.4882 30.1656 18.7137 30.1656C17.9391 30.1656 17.7276 30.1329 17.2203 29.9351C16.8952 29.8084 16.3882 29.5327 16.0935 29.3224C15.4526 28.865 14.4168 27.7709 14.4168 27.5513C14.4168 27.4285 14.8274 25.4225 15.0587 24.4148C15.0912 24.2733 15.2154 24.2147 15.677 24.1229C16.5087 23.9576 16.6512 23.7891 16.6512 22.9712V22.3309L17.1453 22.4687C17.4778 22.5614 17.9908 22.6064 18.7137 22.6064ZM27.5118 25.6753C28.2294 26.0393 28.7129 26.4063 29.3529 27.073C29.8433 27.5839 29.8849 27.6552 29.7931 27.8267C29.6575 28.0802 29.7478 29.0121 29.971 29.6608C30.1853 30.2838 30.5039 30.8396 30.9199 31.316C31.19 31.6254 31.2466 31.7621 31.294 32.2183C31.3246 32.514 31.3728 32.9591 31.401 33.2072L31.4522 33.6584H31.1376C30.802 33.6584 30.4012 33.9602 30.4012 34.2131C30.4012 34.3224 30.2724 34.3459 29.6723 34.3459C28.9839 34.3459 28.9416 34.3351 28.9094 34.1525C28.6074 32.4401 28.3858 31.6348 27.3886 28.6254C26.7767 26.7791 26.2762 25.2435 26.2762 25.2133C26.2762 25.1327 26.9069 25.3685 27.5118 25.6753ZM11.1291 25.3439C11.1067 25.403 10.602 26.9209 10.0075 28.7169C9.04217 31.633 8.81813 32.4506 8.51795 34.1525C8.48435 34.3429 8.46407 34.3459 7.1964 34.3459C6.48828 34.3459 5.90897 34.3312 5.90897 34.3135C5.90897 33.7588 6.39168 30.1531 6.52282 29.7282C7.11785 27.7998 8.44112 26.3209 10.328 25.4754C10.8948 25.2214 11.1937 25.1724 11.1291 25.3439ZM33.1846 29.1725C33.9419 29.5269 34.4609 30.0284 34.8261 30.7581C35.2633 31.6323 35.2652 31.6287 34.4007 31.5747C33.0787 31.4922 32.0475 30.8253 31.4762 29.6836C31.039 28.8094 31.0371 28.813 31.9016 28.867C32.4674 28.9023 32.7519 28.97 33.1846 29.1725ZM40.6277 28.9632C40.6277 29.0278 40.4919 29.3519 40.3261 29.6836C39.7549 30.8253 38.7236 31.4922 37.4016 31.5747C36.5371 31.6287 36.539 31.6323 36.9762 30.7581C37.4284 29.8545 38.2873 29.1616 39.2309 28.9392C39.7702 28.8121 40.6277 28.8269 40.6277 28.9632ZM16.1785 30.9573C18.3857 32.0548 20.7005 31.7058 22.725 29.9701L23.4279 29.3676L23.4761 29.6008C23.5025 29.7291 23.6406 30.3734 23.7829 31.0325C23.9253 31.6916 24.0418 32.2773 24.0418 32.3341C24.0418 32.4478 23.0882 32.6388 21.6355 32.816C20.4707 32.9581 16.9566 32.9581 15.7918 32.816C14.3391 32.6388 13.3855 32.4478 13.3855 32.3341C13.3855 32.2773 13.502 31.6916 13.6444 31.0325C13.7867 30.3734 13.9248 29.7291 13.9513 29.6008L13.9994 29.3676L14.7023 29.9701C15.1326 30.339 15.705 30.7218 16.1785 30.9573ZM33.1618 32.7627C33.3687 32.8373 33.9149 32.9202 34.3758 32.947L35.2137 32.9959V33.3271V33.6584H34.0105C32.8204 33.6584 32.8074 33.6563 32.8065 33.465C32.8059 33.3586 32.7815 33.1267 32.7522 32.9494C32.7229 32.7722 32.7186 32.6271 32.7424 32.6271C32.7662 32.6271 32.955 32.6881 33.1618 32.7627ZM39.9401 35.2267C39.9401 35.3331 39.8241 36.7929 39.6824 38.4709C39.5407 40.1488 39.4247 41.6086 39.4247 41.715L39.4246 41.9084H35.9012H32.3777L32.3776 41.715C32.3776 41.6086 32.2616 40.1488 32.1199 38.4709C31.9782 36.7929 31.8622 35.3331 31.8622 35.2267L31.8621 35.0334H35.9012H39.9402L39.9401 35.2267Z" fill="black"/>
</svg>
