<svg width="24" height="24" viewBox="0 0 24 24" fill="none" xmlns="http://www.w3.org/2000/svg">
<path d="M21.4246 2.47728C20.2382 1.58246 18.9291 1.12866 17.5335 1.12866C15.7726 1.12866 13.8706 1.87221 12 3.28614C10.1294 1.87221 8.22739 1.12866 6.46653 1.12866C5.07096 1.12866 3.76183 1.58246 2.57545 2.47728C0.839656 3.78668 -0.026476 5.43903 0.00068029 7.38833C0.0940715 14.0634 11.0501 21.9397 11.5164 22.2717L12 22.616L12.4836 22.2717C12.95 21.9397 23.9061 14.0634 23.9994 7.38833C24.0265 5.43903 23.1604 3.78668 21.4246 2.47728ZM16.9819 16.2752C14.9535 18.2936 12.9068 19.8999 12 20.5842C11.0933 19.8999 9.04649 18.2937 7.01816 16.2752C3.54314 12.8173 1.68912 9.73607 1.65644 7.36474C1.63679 5.9435 2.26591 4.77095 3.57957 3.78002C4.47076 3.10768 5.4421 2.76681 6.46653 2.76681C8.40534 2.76681 10.2572 3.96121 11.4691 4.96317L12 5.402L12.5309 4.96317C13.7429 3.96121 15.5947 2.76681 17.5335 2.76681C18.5579 2.76681 19.5293 3.10768 20.4205 3.78002C21.7341 4.77095 22.3632 5.9435 22.3436 7.36474C22.3109 9.73617 20.4568 12.8173 16.9819 16.2752Z" fill="#999999"/>
</svg>
