<svg width="33" height="32" viewBox="0 0 33 32" fill="none" xmlns="http://www.w3.org/2000/svg">
<g clip-path="url(#clip0_184_3295)">
<path d="M31.529 15.405H30.2126L28.3326 9.72948C28.1838 9.28106 27.7648 8.97809 27.2924 8.97809H24.1078V3.74449C24.1078 3.1394 23.6171 2.64874 23.0119 2.64874H1.72096C1.11577 2.64874 0.625 3.1394 0.625 3.74449V22.9273C0.625 23.5325 1.11577 24.0232 1.72096 24.0232H2.78007C2.76294 24.1884 2.75399 24.3559 2.75399 24.5258C2.75399 27.1865 4.91714 29.3513 7.57612 29.3513C10.2348 29.3513 12.3975 27.1865 12.3975 24.5258C12.3975 24.3559 12.3886 24.1884 12.3714 24.0232H21.9422C21.9252 24.1884 21.9161 24.3559 21.9161 24.5258C21.9161 27.1865 24.0793 29.3513 26.7386 29.3513C29.3972 29.3513 31.5603 27.1865 31.5603 24.5258C31.5603 24.3558 31.5513 24.1883 31.5341 24.0229C32.1369 24.0203 32.6251 23.5309 32.6251 22.9273V16.5009C32.625 15.8959 32.1342 15.405 31.529 15.405ZM26.5008 11.1699L27.9036 15.4052H24.1078V11.1699H26.5008ZM7.57612 27.1594C6.1258 27.1594 4.9458 25.9779 4.9458 24.5258C4.9458 23.0734 6.1258 21.892 7.57612 21.892C9.02613 21.892 10.2058 23.0734 10.2058 24.5258C10.2058 25.9779 9.02613 27.1594 7.57612 27.1594ZM21.916 21.8314H11.5741C10.707 20.5465 9.23849 19.7 7.57612 19.7C5.91333 19.7 4.44458 20.5465 3.57736 21.8314H2.81692V4.84055H21.916V21.8314ZM26.7385 27.1594C25.2878 27.1594 24.1078 25.9779 24.1078 24.5258C24.1078 23.0734 25.2878 21.892 26.7385 21.892C28.1886 21.892 29.3685 23.0734 29.3685 24.5258C29.3685 25.9779 28.1886 27.1594 26.7385 27.1594ZM26.7385 19.7C25.7684 19.7 24.8652 19.9893 24.1078 20.4842V17.5969H29.4212H30.4331V21.4294C29.5479 20.3732 28.2204 19.7 26.7385 19.7Z" fill="black"/>
</g>
<defs>
<clipPath id="clip0_184_3295">
<rect width="32" height="32" fill="white" transform="translate(0.625)"/>
</clipPath>
</defs>
</svg>
