<svg width="33" height="32" viewBox="0 0 33 32" fill="none" xmlns="http://www.w3.org/2000/svg">
<g clip-path="url(#clip0_252_7729)">
<path fill-rule="evenodd" clip-rule="evenodd" d="M8.03205 4.77235C3.73475 7.36735 0.169579 9.54888 0.109386 9.62027C0.0123137 9.73546 0 9.90798 0 11.1524V12.5547L0.153453 12.7081C0.348285 12.903 0.514301 12.9017 0.85396 12.7026L1.12511 12.5437V22.0008C1.12511 27.8722 1.14793 31.5375 1.18524 31.6677C1.21837 31.783 1.29569 31.9156 1.35714 31.9622C1.45046 32.033 3.96077 32.0473 16.5826 32.0489L31.6963 32.0509L31.8497 31.8975L32.0032 31.7441V28.4568V25.1696L31.8497 25.0162C31.7181 24.8845 31.6383 24.8627 31.2872 24.8627H30.8781V18.7032V12.5437L31.1492 12.7026C31.4889 12.9017 31.6549 12.903 31.8497 12.7081L32.0032 12.5547V11.1489C32.0032 9.77778 31.9997 9.73947 31.8625 9.59145C31.7852 9.50794 29.3029 7.98279 26.3464 6.20211C23.3898 4.4215 19.8838 2.30829 18.5552 1.50615C17.1541 0.660374 16.0777 0.0491252 15.9924 0.0509379C15.9115 0.0527505 12.3294 2.17734 8.03205 4.77235ZM23.5571 5.62105C27.6696 8.10193 31.0423 10.1374 31.0521 10.1444C31.0618 10.1514 31.0618 10.468 31.0521 10.8479L31.0343 11.5386L29.3467 10.5214C27.203 9.22941 18.9905 4.27105 17.3584 3.28338C16.3857 2.69476 16.0849 2.54075 15.952 2.56313C15.859 2.57881 12.4497 4.6057 8.37583 7.06726L0.968846 11.5428L0.951032 10.8434C0.941219 10.4587 0.955283 10.1359 0.982285 10.1261C1.00929 10.1163 4.37856 8.08499 8.46959 5.61224C12.5606 3.1395 15.9465 1.11504 15.9938 1.11336C16.0412 1.11173 19.4446 3.14018 23.5571 5.62105ZM22.9787 7.77571L29.878 11.9409V18.4018V24.8627H28.9091H27.9403V21.8909V18.9189L27.7868 18.7655C27.6385 18.6172 27.6043 18.6121 26.7555 18.6121H25.8776V17.2057V15.7993L26.3307 15.7973C26.8466 15.7951 26.9784 15.7269 27.0676 15.4161C27.1455 15.1441 27.1455 13.6417 27.0676 13.3698C26.9502 12.9608 27.8151 12.9905 16.0016 12.9905C4.1881 12.9905 5.05294 12.9608 4.93562 13.3698C4.85767 13.6417 4.85767 15.1441 4.93562 15.4161C5.02475 15.7269 5.15658 15.7951 5.67244 15.7973L6.12561 15.7993V23.4563V31.1133H4.12541H2.12521V21.5292V11.945L9.01652 7.78071C12.8068 5.49042 15.9465 3.61517 15.9937 3.61354C16.0408 3.61192 19.1842 5.48492 22.9787 7.77571ZM26.1276 14.3929V14.8617H16.0016H5.87558V14.3929V13.9241H16.0016H26.1276V14.3929ZM24.8775 17.2057V18.6121H22.0306H19.1837L19.0303 18.7655L18.8769 18.9189V21.8909V24.8627H16.9989H15.1208L14.9674 25.0162L14.814 25.1696V28.1415V31.1133H10.9698H7.12571V23.4563V15.7993H16.0016H24.8775V17.2057ZM11.9505 16.8644C11.8612 16.9475 11.8137 17.0661 11.8137 17.2057C11.8137 17.3453 11.8612 17.4639 11.9505 17.5471C12.0851 17.6725 12.1488 17.6745 16.0016 17.6745C19.8544 17.6745 19.918 17.6725 20.0527 17.5471C20.1419 17.4639 20.1895 17.3453 20.1895 17.2057C20.1895 17.0661 20.1419 16.9475 20.0527 16.8644C19.918 16.7389 19.8544 16.7369 16.0016 16.7369C12.1488 16.7369 12.0851 16.7389 11.9505 16.8644ZM21.6897 20.3338C21.6897 21.0831 21.6965 21.1248 21.8431 21.2714L21.9965 21.4249H23.4086H24.8207L24.974 21.2714C25.1207 21.1248 25.1275 21.0831 25.1275 20.3338V19.5497H26.0651H27.0027V22.2062V24.8627H23.4086H19.8145V22.2062V19.5497H20.7521H21.6897V20.3338ZM24.1899 20.0185V20.4873H23.4086H22.6273V20.0185V19.5497H23.4086H24.1899V20.0185ZM17.6268 26.5845C17.6268 27.3337 17.6336 27.3755 17.7802 27.522L17.9336 27.6755H19.3457H20.7578L20.9111 27.522C21.0578 27.3755 21.0646 27.3337 21.0646 26.5845V25.8003H22.0022H22.9398V28.4568V31.1133H19.3457H15.7516V28.4568V25.8003H16.6892H17.6268V26.5845ZM20.127 26.2691V26.7379H19.3457H18.5643V26.2691V25.8003H19.3457H20.127V26.2691ZM25.7526 26.5845C25.7526 27.3337 25.7594 27.3755 25.906 27.522L26.0594 27.6755H27.4715H28.8836L29.037 27.522C29.1836 27.3755 29.1904 27.3337 29.1904 26.5845V25.8003H30.128H31.0656V28.4568V31.1133H27.4715H23.8774V28.4568V25.8003H24.815H25.7526V26.5845ZM28.2528 26.2691V26.7379H27.4715H26.6902V26.2691V25.8003H27.4715H28.2528V26.2691Z" fill="black"/>
</g>
<defs>
<clipPath id="clip0_252_7729">
<rect width="32" height="32" fill="white" transform="translate(0.375)"/>
</clipPath>
</defs>
</svg>
