<svg width="25" height="24" viewBox="0 0 25 24" fill="none" xmlns="http://www.w3.org/2000/svg">
<g opacity="0.8" clip-path="url(#clip0_146_7609)">
<path d="M24.1975 22.2809L17.3116 15.39C18.6691 13.762 19.4856 11.6815 19.4856 9.40909C19.4856 4.22495 15.231 0.00976562 9.99769 0.00976562C4.76437 0.00976562 0.5 4.22987 0.5 9.41401C0.5 14.5981 4.75453 18.8133 9.98786 18.8133C12.211 18.8133 14.2571 18.051 15.8803 16.7771L22.7908 23.6876C23.1941 24.0909 23.7942 24.0909 24.1975 23.6876C24.6008 23.2843 24.6008 22.6842 24.1975 22.2809ZM2.5166 9.41401C2.5166 5.34146 5.87104 2.03128 9.98786 2.03128C14.1047 2.03128 17.4591 5.34146 17.4591 9.41401C17.4591 13.4866 14.1047 16.7967 9.98786 16.7967C5.87104 16.7967 2.5166 13.4816 2.5166 9.41401Z" fill="white"/>
</g>
<defs>
<clipPath id="clip0_146_7609">
<rect width="24" height="24" fill="white" transform="translate(0.5)"/>
</clipPath>
</defs>
</svg>
