<svg width="41" height="40" viewBox="0 0 41 40" fill="none" xmlns="http://www.w3.org/2000/svg">
<g clip-path="url(#clip0_253_8331)">
<path fill-rule="evenodd" clip-rule="evenodd" d="M4.18057 6.46566C2.5284 6.52334 2.30144 6.59235 1.69581 7.22083C1.03693 7.90457 1.02403 7.98007 1.02187 11.1545C1.0197 14.3211 1.25159 27.527 1.31931 28.0972C1.37992 28.6071 1.64282 29.0843 2.05967 29.4412C2.62166 29.9222 2.93936 29.9714 5.03827 29.9029L6.87913 29.8428L6.98867 30.4557C7.2901 32.1426 8.54889 33.3806 10.261 33.6742C11.8452 33.9459 13.5975 33.0761 14.3161 31.6615C14.5821 31.138 14.7855 30.4544 14.7871 30.0786L14.7881 29.8306L16.1519 29.8861C21.0284 30.084 26.3679 30.1506 27.7711 30.0308C28.3157 29.9844 28.788 29.963 28.8207 29.9831C28.8534 30.0034 28.8986 30.2101 28.9208 30.4425C28.9806 31.0652 29.4288 31.9441 29.9821 32.5243C30.8447 33.4286 32.182 33.8879 33.3633 33.6856C34.4937 33.4919 35.5062 32.838 36.0941 31.9218C36.3876 31.4645 36.6959 30.5874 36.6959 30.2098V29.9785L37.9299 29.9794C39.3249 29.9804 39.5684 29.9039 40.177 29.2733C40.8035 28.6241 40.8613 28.3683 40.944 25.8777C40.9845 24.6575 41.0194 22.8899 41.0215 21.9498C41.0249 20.4891 41.0022 20.1791 40.8651 19.8183C40.6686 19.3012 36.9558 13.7539 36.4923 13.2848C36.3088 13.0991 35.9386 12.844 35.6696 12.718L35.1806 12.4887L31.2839 12.4645L27.3873 12.4404V10.3863C27.3873 8.4378 27.3774 8.31224 27.1947 7.94258C26.8907 7.32752 26.5144 6.93404 25.9784 6.67089L25.4822 6.42722L15.5674 6.42072C10.1143 6.41717 4.99021 6.43735 4.18057 6.46566ZM25.2233 8.06727C25.3875 8.13585 25.5942 8.31112 25.6829 8.45685C25.8347 8.70658 25.8475 9.10291 25.9062 15.3678C25.9405 19.0231 25.9998 23.5919 26.0382 25.5208C26.0765 27.4496 26.084 29.053 26.0548 29.0837C26.0008 29.1407 17.7884 29.3741 15.8373 29.3741H14.7649L14.6484 28.9196C14.487 28.2898 14.2634 27.8814 13.7936 27.359C13.221 26.7221 12.4772 26.3711 11.6033 26.3254L10.9348 26.2905L11.4204 26.4971C13.2478 27.2747 14.0168 29.0778 13.21 30.6934C12.9567 31.2005 12.2956 31.7899 11.7847 31.9639C11.1675 32.1743 10.3341 32.1429 9.78854 31.8889C9.17322 31.6025 8.60855 31.0025 8.37709 30.3891C8.12926 29.7324 8.16823 28.7799 8.46853 28.1557C8.77913 27.5099 9.52651 26.8109 10.1987 26.5375L10.7616 26.3085L10.3147 26.3044C9.40113 26.2957 8.34098 26.7967 7.78359 27.5005C7.44735 27.925 7.09769 28.6643 7.02461 29.105L6.96875 29.4421L5.09836 29.3817C3.48853 29.3296 3.17784 29.2972 2.86723 29.1486C2.48926 28.9678 2.26161 28.696 2.14367 28.2849C2.10513 28.1504 2.10687 26.5285 2.14756 24.6807C2.18835 22.8329 2.26559 18.496 2.31928 15.0431C2.3837 10.9011 2.44942 8.68069 2.51255 8.51686C2.56511 8.38022 2.72808 8.19526 2.87476 8.10581C3.13194 7.94899 3.53001 7.94319 14.0332 7.94293C23.3171 7.94267 24.969 7.96102 25.2233 8.06727ZM35.018 14.1699C35.312 14.3035 35.5251 14.544 36.2243 15.5319C36.6913 16.1918 37.648 17.5397 38.3503 18.5273C39.5264 20.1809 39.6309 20.3589 39.6728 20.7787C39.7806 21.8576 39.876 27.9014 39.7894 28.1577C39.5136 28.9733 39.0341 29.221 37.6554 29.2597L36.6666 29.2875L36.5634 28.8885C36.1897 27.4418 34.9432 26.3997 33.4968 26.3245L32.8426 26.2905L33.3478 26.5051C34.7298 27.0922 35.4426 28.0861 35.4382 29.42C35.4354 30.2474 35.1502 30.8794 34.5263 31.4403C34.006 31.908 33.4751 32.102 32.7189 32.1009C31.737 32.0994 30.8957 31.5566 30.3971 30.6026C30.1962 30.2183 30.162 30.0472 30.1603 29.4174C30.1586 28.7968 30.1948 28.6036 30.391 28.1847C30.6687 27.5922 31.3082 26.9321 31.8468 26.6822C32.7355 26.2697 32.7201 26.2949 32.0619 26.3291C30.6439 26.4028 29.4925 27.3332 29.0609 28.7541L28.8791 29.3528L28.047 29.2918C27.5894 29.2582 27.2014 29.2172 27.185 29.2007C27.1446 29.1603 27.3383 16.4063 27.3996 15.0648L27.448 14.004L31.0545 14.0059C34.3919 14.0077 34.6877 14.02 35.018 14.1699ZM30.851 15.4062C28.9708 15.5048 28.9366 15.5235 28.9672 16.4406C28.9898 17.1159 29.1821 18.9207 29.3508 20.0424C29.4387 20.6265 29.4611 20.6808 29.5205 20.4551C29.6147 20.098 29.9417 17.4251 29.9417 17.0128V16.678L31.219 16.7293C31.9215 16.7574 32.7704 16.8013 33.1055 16.8267L33.7147 16.8729L33.9573 17.2562C34.0906 17.467 34.5882 18.1951 35.0629 18.8741C35.5733 19.6042 35.8798 20.1166 35.813 20.1278C35.7509 20.1383 34.9013 20.2084 33.925 20.2834C32.3626 20.4035 29.6893 20.722 29.6143 20.7969C29.4866 20.9247 33.7833 21.3681 36.4496 21.5024L37.632 21.5619L37.8567 21.3372C38.2484 20.9454 38.1763 20.7033 37.2485 19.2949C35.9102 17.2634 34.7159 15.5807 34.5102 15.4366C34.2922 15.2839 33.3367 15.276 30.851 15.4062Z" fill="black"/>
</g>
<defs>
<clipPath id="clip0_253_8331">
<rect width="40" height="40" fill="white" transform="translate(0.625)"/>
</clipPath>
</defs>
</svg>
