<svg width="16" height="17" viewBox="0 0 16 17" fill="none" xmlns="http://www.w3.org/2000/svg">
<path d="M13.3334 2.5H2.66675C1.56225 2.5 0.666748 3.3955 0.666748 4.5V12.5C0.666748 13.6045 1.56225 14.5 2.66675 14.5H13.3334C14.4379 14.5 15.3334 13.6045 15.3334 12.5V4.5C15.3334 3.3955 14.4379 2.5 13.3334 2.5ZM13.3334 3.83333C13.4099 3.83333 13.4822 3.84883 13.5506 3.8725L8.00008 8.31283L2.44958 3.8725C2.51808 3.84883 2.59025 3.83333 2.66675 3.83333H13.3334ZM13.3334 13.1667H2.66675C2.29841 13.1667 2.00008 12.8683 2.00008 12.5V5.2205L7.58358 9.68717C7.70525 9.78467 7.85275 9.83333 8.00008 9.83333C8.14741 9.83333 8.29491 9.78467 8.41658 9.68717L14.0001 5.2205V12.5C14.0001 12.8683 13.7017 13.1667 13.3334 13.1667Z" fill="#6D9300"/>
<path d="M13.8182 1.5H2.18182C0.976909 1.5 0 2.54475 0 3.83333V13.1667C0 14.4552 0.976909 15.5 2.18182 15.5H13.8182C15.0231 15.5 16 14.4552 16 13.1667V3.83333C16 2.54475 15.0231 1.5 13.8182 1.5ZM13.8182 3.05556C13.9016 3.05556 13.9805 3.07364 14.0551 3.10125L8 8.28164L1.94491 3.10125C2.01964 3.07364 2.09836 3.05556 2.18182 3.05556H13.8182ZM13.8182 13.9444H2.18182C1.78 13.9444 1.45455 13.5964 1.45455 13.1667V4.67392L7.54564 9.88503C7.67836 9.99878 7.83927 10.0556 8 10.0556C8.16073 10.0556 8.32164 9.99878 8.45436 9.88503L14.5455 4.67392V13.1667C14.5455 13.5964 14.22 13.9444 13.8182 13.9444Z" fill="#6D9300"/>
</svg>
