<svg width="33" height="33" viewBox="0 0 33 33" fill="none" xmlns="http://www.w3.org/2000/svg">
<g clip-path="url(#clip0_184_3238)">
<path d="M10.5157 14.0675C10.8072 15.9625 12.2715 18.3742 14.6766 19.2223C15.6638 19.5668 16.7438 19.5734 17.731 19.2156C20.0963 18.3609 21.607 15.9558 21.9051 14.0675C22.2231 14.041 22.6406 13.5971 23.0911 12.0003C23.7073 9.82052 23.0513 9.49586 22.4948 9.54887C22.6008 9.25072 22.6803 8.94594 22.7333 8.65441C23.6742 3.00276 20.8914 2.81062 20.8914 2.81062C20.8914 2.81062 20.4276 1.92278 19.2151 1.2536C18.4002 0.769928 17.2672 0.398893 15.7764 0.52478C15.2927 0.544657 14.8356 0.644041 14.4049 0.783179C13.855 0.968696 13.3514 1.24035 12.8943 1.55838C12.3377 1.90953 11.8077 2.34682 11.3439 2.84375C10.6084 3.59907 9.9525 4.57303 9.6676 5.78552C9.42908 6.69323 9.48209 7.64069 9.68085 8.66104C9.73386 8.95919 9.81337 9.25734 9.91938 9.55549C9.36282 9.50249 8.70689 9.82714 9.32307 12.007C9.78024 13.5971 10.1977 14.041 10.5157 14.0675Z" fill="#6D9300"/>
<path d="M27.1394 21.4816C23.7537 20.6203 21.0041 18.6856 21.0041 18.6856L18.8574 25.4768L18.4532 26.7556L18.4466 26.7357L18.0954 27.8223L16.9625 24.6089C19.7452 20.7263 16.3993 20.766 16.2138 20.7727C16.0283 20.766 12.6823 20.7263 15.4651 24.6089L14.3321 27.8223L13.9809 26.7357L13.9743 26.7556L13.5702 25.4768L11.4168 18.6856C11.4168 18.6856 8.6672 20.6203 5.28151 21.4816C2.75715 22.1243 2.63789 25.0396 2.73727 26.4773C2.73727 26.4773 2.88304 28.4319 3.0288 29.2932C3.0288 29.2932 7.95826 32.4934 16.2138 32.5C24.4693 32.5 29.3987 29.2932 29.3987 29.2932C29.5445 28.4319 29.6903 26.4773 29.6903 26.4773C29.783 25.0396 29.6638 22.1243 27.1394 21.4816Z" fill="#6D9300"/>
</g>
<defs>
<clipPath id="clip0_184_3238">
<rect width="32" height="32" fill="white" transform="translate(0.212646 0.5)"/>
</clipPath>
</defs>
</svg>
