<svg width="52" height="53" viewBox="0 0 52 53" fill="none" xmlns="http://www.w3.org/2000/svg">
<path d="M32.5113 31.1641V12.562C32.5113 12.0291 32.0787 11.5964 31.5458 11.5964H0.965552C0.432607 11.5964 0 12.0291 0 12.562V31.1657C0 31.6987 0.432607 32.1329 0.965552 32.1329H31.5458C32.0787 32.1329 32.5113 31.7003 32.5113 31.1641ZM25.1882 19.2945L26.6966 16.6792C26.8479 16.4193 27.2213 16.4193 27.3694 16.6792L28.881 19.2945C29.0324 19.5544 28.8465 19.8801 28.5438 19.8801H27.9105V24.7572C27.9105 24.9727 27.7345 25.1471 27.5223 25.1471H26.5453C26.3298 25.1471 26.1554 24.9727 26.1554 24.7572V19.8801H25.5222C25.2261 19.8801 25.0386 19.5528 25.1882 19.2945ZM19.3439 19.2945L20.8556 16.6792C21.0036 16.4193 21.3787 16.4193 21.53 16.6792L23.04 19.2945C23.1913 19.5544 23.0022 19.8801 22.7012 19.8801H22.0679V24.7572C22.0679 24.9727 21.8952 25.1471 21.678 25.1471H20.7026C20.4888 25.1471 20.3144 24.9727 20.3144 24.7572V19.8801H19.6795C19.3801 19.8801 19.1943 19.5528 19.3439 19.2945ZM12.8318 26.6061C12.9338 26.6275 13.0045 26.7147 13.0045 26.8183V27.2887C13.0045 27.4236 12.896 27.5305 12.7611 27.5305H5.56796C5.44953 27.5305 5.35084 27.4335 5.35084 27.315V26.8183C5.35084 26.7163 5.42321 26.6258 5.52355 26.6061L8.06491 26.0912V23.9644C6.01373 23.4644 4.48727 21.627 4.48727 19.4228C4.48727 18.2352 4.9429 17.1628 5.66995 16.3387H12.6838C13.4108 17.1644 13.8681 18.2369 13.8681 19.4228C13.8681 21.627 12.34 23.4644 10.2905 23.9644V26.0912L12.8318 26.6061ZM29.6245 27.3479C29.6245 27.4532 29.5373 27.542 29.4304 27.542H18.6794C18.5725 27.542 18.4837 27.4532 18.4837 27.3479V26.764C18.4837 26.6587 18.5708 26.5716 18.6794 26.5716H29.4304C29.5373 26.5716 29.6245 26.6571 29.6245 26.764V27.3479Z" fill="#6D9300"/>
<path d="M51.3832 33.7022H49.8765V25.2951C49.8765 24.3082 49.5821 23.3426 49.0278 22.5251L45.261 16.9456C44.3415 15.582 42.8051 14.7662 41.1602 14.7662H35.3176C34.6349 14.7662 34.079 15.3188 34.079 16.0031V32.735C34.079 33.2679 33.6447 33.7022 33.1134 33.7022H24.5139C25.4203 34.4851 26.0453 35.579 26.2263 36.8176H36.3144C36.6713 34.3601 38.785 32.4652 41.3445 32.4652C43.9006 32.4652 46.0127 34.3585 46.3713 36.8176H51.3832C51.7237 36.8176 52.0001 36.5396 52.0001 36.1991V34.3223C52.0001 33.9818 51.7237 33.7022 51.3832 33.7022ZM45.2149 23.642H37.5053C37.1631 23.642 36.8884 23.3657 36.8884 23.0235V18.7435C36.8884 18.4014 37.1631 18.125 37.5053 18.125H42.1998C42.4021 18.125 42.5913 18.2221 42.7081 18.3866L45.7199 22.6666C46.011 23.0778 45.7199 23.642 45.2149 23.642Z" fill="#6D9300"/>
<path d="M41.3444 33.7022C39.2176 33.7022 37.4954 35.4277 37.4954 37.5561C37.4954 39.6813 39.2176 41.4052 41.3444 41.4052C43.4713 41.4052 45.1951 39.6813 45.1951 37.5561C45.1935 35.4277 43.4696 33.7022 41.3444 33.7022ZM41.3444 39.479C40.2818 39.479 39.4199 38.6187 39.4199 37.5561C39.4199 36.4919 40.2802 35.63 41.3444 35.63C42.4087 35.63 43.2706 36.4903 43.2706 37.5561C43.2689 38.6171 42.4037 39.479 41.3444 39.479Z" fill="#6D9300"/>
<path d="M9.25422 33.7022C8.91208 33.7022 8.63574 33.9818 8.63574 34.3223V36.2008C8.63574 36.5429 8.91373 36.8192 9.25422 36.8192H16.1694C16.3503 35.5806 16.9753 34.4851 17.8833 33.7022H9.25422Z" fill="#6D9300"/>
<path d="M21.1977 33.7022C19.0725 33.7022 17.3486 35.4277 17.3486 37.5561C17.3486 39.6813 19.0725 41.4052 21.1977 41.4052C23.3245 41.4052 25.0484 39.6813 25.0484 37.5561C25.0484 35.4277 23.3245 33.7022 21.1977 33.7022ZM21.1977 39.479C20.1351 39.479 19.2732 38.6187 19.2732 37.5561C19.2732 36.4919 20.1351 35.63 21.1977 35.63C22.2603 35.63 23.1222 36.4903 23.1222 37.5561C23.1222 38.6171 22.2603 39.479 21.1977 39.479Z" fill="#6D9300"/>
</svg>
